<svg xmlns="http://www.w3.org/2000/svg" version="1.1" xmlns:xlink="http://www.w3.org/1999/xlink" xmlns:svgjs="http://svgjs.com/svgjs" width="1920" height="1080" preserveAspectRatio="none" viewBox="0 0 1920 1080"><g mask="url(&quot;#SvgjsMask1049&quot;)" fill="none"><rect width="1920" height="1080" x="0" y="0" fill="rgba(17, 17, 17, 1)"></rect><path d="M0,711.429C128.984,689.252,208.232,566.009,320.16,498.179C436.197,427.859,616.181,430.516,669.455,305.73C722.955,180.414,593.726,52.126,567.69,-81.621C543.413,-206.329,585.194,-342.069,521.904,-452.232C453.268,-571.701,341.454,-674.192,207.868,-707.933C75.728,-741.309,-59.233,-682.796,-185.232,-630.843C-300.618,-583.266,-403.062,-514.374,-486.554,-421.602C-571.273,-327.466,-649.574,-221.338,-666.702,-95.857C-683.775,29.228,-624.285,146.677,-580.272,265.001C-532.825,392.558,-507.568,538.96,-399.701,621.947C-289.252,706.92,-137.339,735.042,0,711.429" fill="#0b0b0b"></path><path d="M1920 1761.597C2045.603 1750.175 2148.044 1667.9940000000001 2251.805 1596.299 2352.243 1526.9 2470.87 1465.473 2513.906 1351.228 2556.27 1238.768 2508.946 1115.69 2476.433 999.997 2447.553 897.23 2403.626 802.1120000000001 2336.309 719.2660000000001 2267.251 634.277 2182.0950000000003 568.771 2084.956 518.211 1968.995 457.85400000000004 1846.4470000000001 365.73900000000003 1719.868 398.41200000000003 1593.275 431.08799999999997 1535.497 574.4200000000001 1458.327 679.9580000000001 1387.4360000000001 776.908 1293.437 869.145 1287.933 989.122 1282.55 1106.458 1387.411 1194.33 1429.703 1303.911 1475.675 1423.028 1453.6689999999999 1573.266 1547.004 1660.393 1643.123 1750.1190000000001 1789.05 1773.5059999999999 1920 1761.597" fill="#171717"></path></g><defs><mask id="SvgjsMask1049"><rect width="1920" height="1080" fill="#ffffff"></rect></mask></defs></svg>